# xmcd
#
# Track frame offsets:
# 150
# 11212
# 22870
# 43030
# 65492
# 79747
# 90825
# 99175
# 117705
# 128755
# 142407
# 151347
# 160597
# 168780
# 177110
# 189870
# 203432
# 215500
# 225570
# 233840
# 244677
# 255517
# 266865
# 279320
# 294502
#
# Disc length: 4067 seconds
#
#
# Revision: 2
# Processed by: cddbd v1.5.2PL0 Copyright (c) Steve Scherf et al.
# Submitted via: FreeRIP 2.951 
#
DISCID=490fe119
DTITLE=Flatt and Scruggs - Earl Scruggs: His Family and Friends - Nashville Airplane
DYEAR=1900
DGENRE=
TTITLE0=Nine Pound Hammer
TTITLE1=Lonesome Ruben
TTITLE2=My Home's Across The Blue Ridge Mountains
TTITLE3=Love Is Just A Four Letter Word
TTITLE4=The Last Thing On My Mind
TTITLE5=Streamlined Cannonball
TTITLE6=Nashville Skyline Rag
TTITLE7=Foggy Mountain Breakdown
TTITLE8=You Ain't Going Nowhere
TTITLE9=Nothin' To It
TTITLE10=Salty Dog Blues
TTITLE11=On Top Of Old Smokey
TTITLE12=Black Mountain Rag
TTITLE13=Foggy Mountain Breakdown (20-Second Excerpt From His Moratorium Appearance)
TTITLE14=Like A Rolling Stone
TTITLE15=Folsom Prison Blues
TTITLE16=Gentle On My Mind
TTITLE17=If I Were A Carpenter
TTITLE18=Frieda Florentine
TTITLE19=I'll Be Your Baby Tonight
TTITLE20=Rainy Day Women #12 and #35
TTITLE21=Catch The Wind
TTITLE22=Long Road To Houston
TTITLE23=The Times They  Are A-Changin'
TTITLE24=Universal Soldier
EXTD=
EXTT0=
EXTT1=
EXTT2=
EXTT3=
EXTT4=
EXTT5=
EXTT6=
EXTT7=
EXTT8=
EXTT9=
EXTT10=
EXTT11=
EXTT12=
EXTT13=
EXTT14=
EXTT15=
EXTT16=
EXTT17=
EXTT18=
EXTT19=
EXTT20=
EXTT21=
EXTT22=
EXTT23=
EXTT24=
PLAYORDER=
